<svg width="31" height="30" viewBox="0 0 31 30" fill="none" xmlns="http://www.w3.org/2000/svg">
<g clip-path="url(#clip0_11_3)">
<path d="M12.611 0H12.615V0.00175294C16.0963 0.00275461 19.2485 1.40435 21.5296 3.66915C23.807 5.93068 25.2177 9.05692 25.22 12.5097H25.2218V12.518V12.528H25.22C25.2187 13.9196 24.9887 15.2588 24.5656 16.5076C24.4947 16.7172 24.4205 16.9186 24.3443 17.1109V17.1127C23.9795 18.0292 23.508 18.8956 22.9449 19.6937L30.2818 26.2394L30.2863 26.2435L30.3259 26.28L30.3287 26.2828C30.7429 26.6742 30.9685 27.1983 30.997 27.7302C31.0247 28.2561 30.86 28.794 30.4977 29.2255L30.4949 29.2295L30.4508 29.2803L30.442 29.2891L30.4051 29.3291L30.4011 29.3344C30.0063 29.7456 29.4793 29.9689 28.9429 29.997C28.4139 30.0248 27.8715 29.8618 27.4365 29.5017L27.4328 29.4989L27.3813 29.4551L27.374 29.4491L19.8699 22.7544C19.6479 22.9096 19.4213 23.0571 19.192 23.1964C18.8809 23.3854 18.5588 23.5635 18.2301 23.726C16.54 24.5629 14.6303 25.0337 12.6113 25.0337V25.0354H12.6072V25.0337C9.126 25.0327 5.97325 23.6311 3.69213 21.3663C1.41403 19.1047 0.00403649 15.978 0.00176597 12.5262H0V12.518V12.514H0.00176597C0.00277509 9.05842 1.41479 5.92893 3.69642 3.66464C5.97476 1.40435 9.12424 0.00400671 12.6027 0.00175294V0H12.611ZM12.615 2.8072V2.80895H12.611H12.6027V2.8072C9.90681 2.80895 7.46322 3.89653 5.69423 5.65172C3.92549 7.40691 2.82882 9.83497 2.82807 12.5142H2.82983V12.5182V12.5265H2.82807C2.82983 15.2025 3.92473 17.6268 5.69372 19.3832C7.46196 21.1392 9.90807 22.2277 12.607 22.2282V22.2265H12.611H12.6193V22.2282C15.3152 22.2265 17.7578 21.1394 19.5273 19.3837C21.296 17.6285 22.3927 15.2012 22.3932 12.5222H22.3917V12.5182V12.51H22.3932C22.3917 9.83397 21.2958 7.40841 19.5278 5.65247C17.7596 3.89653 15.3142 2.80795 12.615 2.8072Z" fill="#C9BDBD"/>
</g>
<defs>
<clipPath id="clip0_11_3">
<rect width="31" height="30" fill="white"/>
</clipPath>
</defs>
</svg>
